<svg width="306" height="99" viewBox="0 0 306 99" fill="none" xmlns="http://www.w3.org/2000/svg">
<path d="M221.142 28.801H214.958V34.276H220.678V35.9428H214.958V42.9521H213.102V27.1232H221.142V28.801ZM232.707 42.9521H230.896V41.164H230.852C230.101 42.5327 228.938 43.2171 227.362 43.2171C224.668 43.2171 223.32 41.6128 223.32 38.4044V31.6489H225.12V38.1174C225.12 40.5016 226.033 41.6937 227.859 41.6937C228.743 41.6937 229.468 41.37 230.035 40.7223C230.609 40.0674 230.896 39.2138 230.896 38.1615V31.6489H232.707V42.9521ZM245.421 42.9521H243.61V36.5058C243.61 34.1068 242.734 32.9073 240.981 32.9073C240.076 32.9073 239.325 33.2494 238.729 33.9338C238.14 34.6108 237.845 35.4681 237.845 36.5058V42.9521H236.034V31.6489H237.845V33.5255H237.889C238.743 32.0977 239.98 31.3839 241.6 31.3839C242.837 31.3839 243.783 31.785 244.438 32.5872C245.093 33.3819 245.421 34.5336 245.421 36.0421V42.9521ZM258.156 42.9521H256.346V41.0315H256.302C255.462 42.4885 254.166 43.2171 252.414 43.2171C250.993 43.2171 249.856 42.713 249.001 41.7048C248.155 40.6892 247.731 39.3094 247.731 37.5655C247.731 35.6962 248.203 34.1988 249.145 33.0729C250.088 31.947 251.343 31.3839 252.911 31.3839C254.464 31.3839 255.595 31.9948 256.302 33.2163H256.346V26.218H258.156V42.9521ZM256.346 37.8414V36.1746C256.346 35.2621 256.044 34.4894 255.44 33.8565C254.836 33.2237 254.071 32.9073 253.144 32.9073C252.039 32.9073 251.17 33.312 250.537 34.1215C249.904 34.9309 249.587 36.0495 249.587 37.4771C249.587 38.7797 249.889 39.8099 250.493 40.5678C251.104 41.3185 251.921 41.6937 252.944 41.6937C253.953 41.6937 254.77 41.3296 255.396 40.6009C256.029 39.8725 256.346 38.9526 256.346 37.8414ZM262.113 43.1949C261.774 43.1949 261.483 43.0735 261.24 42.8307C261.005 42.5878 260.887 42.2972 260.887 41.9587C260.887 41.6202 261.005 41.3296 261.24 41.0867C261.483 40.8365 261.774 40.7114 262.113 40.7114C262.459 40.7114 262.753 40.8365 262.996 41.0867C263.239 41.3296 263.36 41.6202 263.36 41.9587C263.36 42.2972 263.239 42.5878 262.996 42.8307C262.753 43.0735 262.459 43.1949 262.113 43.1949ZM273.756 42.4333C272.886 42.9559 271.856 43.2171 270.663 43.2171C269.051 43.2171 267.748 42.6945 266.754 41.6497C265.768 40.5973 265.275 39.2359 265.275 37.5655C265.275 35.7036 265.809 34.2098 266.876 33.0838C267.944 31.9506 269.367 31.3839 271.15 31.3839C272.144 31.3839 273.02 31.568 273.778 31.9359V33.7903C272.938 33.2016 272.041 32.9073 271.083 32.9073C269.927 32.9073 268.977 33.323 268.234 34.1546C267.498 34.9788 267.129 36.0642 267.129 37.4109C267.129 38.7355 267.476 39.7804 268.168 40.5458C268.868 41.3111 269.803 41.6937 270.973 41.6937C271.959 41.6937 272.886 41.3663 273.756 40.7114V42.4333ZM280.881 43.2171C279.21 43.2171 277.874 42.6909 276.873 41.6386C275.879 40.5789 275.382 39.1771 275.382 37.433C275.382 35.5344 275.901 34.0516 276.939 32.9845C277.977 31.9175 279.38 31.3839 281.147 31.3839C282.832 31.3839 284.147 31.9028 285.089 32.9404C286.039 33.9779 286.514 35.4166 286.514 37.2563C286.514 39.0593 286.002 40.5053 284.978 41.5944C283.963 42.6762 282.597 43.2171 280.881 43.2171ZM281.014 32.9073C279.851 32.9073 278.931 33.3046 278.253 34.0994C277.576 34.8868 277.238 35.9759 277.238 37.3668C277.238 38.7061 277.579 39.762 278.265 40.5347C278.949 41.3074 279.866 41.6937 281.014 41.6937C282.185 41.6937 283.083 41.3147 283.708 40.5569C284.342 39.7989 284.658 38.7208 284.658 37.3226C284.658 35.9096 284.342 34.8206 283.708 34.0552C283.083 33.2899 282.185 32.9073 281.014 32.9073ZM305.125 42.9521H303.313V36.4616C303.313 35.2105 303.118 34.3055 302.728 33.7462C302.345 33.1869 301.697 32.9073 300.785 32.9073C300.011 32.9073 299.352 33.2605 298.808 33.967C298.27 34.6734 298.002 35.5197 298.002 36.5058V42.9521H296.19V36.2408C296.19 34.0185 295.333 32.9073 293.618 32.9073C292.823 32.9073 292.167 33.2421 291.651 33.9118C291.137 34.5741 290.879 35.4388 290.879 36.5058V42.9521H289.067V31.6489H290.879V33.4371H290.923C291.726 32.0684 292.896 31.3839 294.434 31.3839C295.208 31.3839 295.882 31.6011 296.455 32.0352C297.029 32.462 297.424 33.0249 297.637 33.7241C298.477 32.164 299.728 31.3839 301.392 31.3839C303.88 31.3839 305.125 32.9182 305.125 35.987V42.9521Z" fill="white"/>
<path d="M171.613 3.09277C169.643 3.09427 167.677 3.28732 165.744 3.66924C170.316 6.80644 173.454 11.6306 174.468 17.0806C175.482 22.5305 174.288 28.1597 171.15 32.7299C168.011 37.3001 163.185 40.4367 157.732 41.45C152.28 42.4633 146.648 41.27 142.076 38.1328C143.046 43.7565 145.602 48.9863 149.444 53.2068C153.287 57.4273 158.256 60.4629 163.766 61.9562C169.276 63.4495 175.098 63.3385 180.547 61.6361C185.996 59.9337 190.845 56.7109 194.524 52.347C198.203 47.9829 200.558 42.6594 201.312 37.0029C202.066 31.3463 201.188 25.5922 198.781 20.4176C196.374 15.2431 192.538 10.8634 187.725 7.79419C182.912 4.72495 177.322 3.09382 171.613 3.09277Z" fill="#1AACDB"/>
<path d="M165.744 3.66932C163.48 2.11592 160.933 1.02347 158.246 0.454302C155.56 -0.11486 152.788 -0.149577 150.088 0.352133C147.389 0.853844 144.814 1.88216 142.512 3.37836C140.21 4.87456 138.225 6.80936 136.671 9.07227C133.532 13.6425 132.339 19.2717 133.352 24.7216C134.366 30.1715 137.504 34.9958 142.076 38.1329C141.794 36.4521 141.65 34.7508 141.647 33.0464C141.646 26.1192 144.047 19.4058 148.441 14.0493C152.836 8.69264 158.951 5.02409 165.748 3.66819L165.744 3.66932Z" fill="#DAEBF5"/>
<path d="M174.44 20.6128C174.443 17.2995 173.655 14.0332 172.143 11.0847C170.631 8.1362 168.437 5.59032 165.744 3.65796C158.947 5.0149 152.831 8.68524 148.437 14.0438C144.043 19.4024 141.643 26.1179 141.647 33.0464C141.65 34.7508 141.794 36.452 142.076 38.1328C145.233 40.1991 148.89 41.373 152.659 41.5304C156.429 41.6877 160.171 40.8224 163.489 39.0265C166.807 37.2305 169.576 34.5706 171.504 31.3288C173.432 28.0871 174.447 24.3842 174.44 20.6128Z" fill="#1AACDB"/>
<path d="M174.855 20.7168C174.896 17.3367 174.083 14.0008 172.49 11.0188C170.897 8.03669 168.577 5.50484 165.744 3.65796C158.947 5.0149 152.831 8.68524 148.437 14.0438C144.043 19.4024 141.643 26.1179 141.647 33.0464C141.65 34.7508 141.794 36.452 142.076 38.1328C145.244 40.3132 148.946 41.5891 152.785 41.8236C156.623 42.058 160.453 41.242 163.863 39.4632C167.245 37.6536 170.061 34.9454 172 31.6375C173.94 28.3296 174.928 24.5504 174.855 20.7168Z" fill="#2299BF"/>
<path d="M192.715 26.2757H190.103L185.24 20.3415L184.743 16.555C184.699 16.226 184.575 15.9127 184.383 15.6421C184.191 15.3714 183.936 15.1514 183.64 15.0013C183.344 14.8511 183.016 14.7751 182.684 14.78C182.352 14.7849 182.026 14.8703 181.735 15.029L174.497 18.9852H167.091C151.598 19.1773 150.479 36.313 156.698 42.2133C158.05 43.5664 158.96 45.2961 159.311 47.1754L159.842 49.7526C159.923 50.1678 160.145 50.542 160.471 50.8119C160.797 51.0819 161.206 51.2307 161.629 51.2333H167.656C168.068 51.2058 168.462 51.0507 168.782 50.7894C169.102 50.5281 169.333 50.1736 169.443 49.7752L170.37 47.4467H174.95L175.877 49.7752C175.986 50.1736 176.217 50.5281 176.537 50.7894C176.858 51.0507 177.251 51.2058 177.664 51.2333H182.718C183.085 51.2386 183.445 51.1337 183.752 50.9322C184.058 50.7307 184.297 50.4419 184.437 50.103L187.649 42.5185L193.8 39.5458C194.226 39.3408 194.584 39.0198 194.834 38.6197C195.084 38.2197 195.216 37.7569 195.214 37.2851V28.7964C195.215 28.4669 195.152 28.1403 195.027 27.8353C194.902 27.5303 194.719 27.2528 194.487 27.0187C194.255 26.7847 193.979 26.5986 193.675 26.4712C193.371 26.3437 193.045 26.2773 192.715 26.2757ZM177.539 25.7897C177.481 26.0113 177.352 26.2079 177.173 26.3505C176.994 26.4931 176.773 26.5739 176.544 26.5809C176.416 26.5822 176.288 26.5552 176.171 26.5018C175.114 26.0377 173.973 25.798 172.818 25.798C171.664 25.798 170.522 26.0377 169.465 26.5018C169.329 26.5563 169.183 26.581 169.037 26.5745C168.891 26.5679 168.747 26.5303 168.617 26.4639C168.486 26.3976 168.371 26.3041 168.28 26.1898C168.188 26.0755 168.122 25.943 168.086 25.801C167.982 25.5095 167.986 25.1903 168.098 24.9018C168.21 24.6134 168.423 24.3749 168.696 24.2299C169.991 23.6585 171.391 23.3632 172.807 23.3632C174.222 23.3632 175.622 23.6585 176.917 24.2299C177.194 24.369 177.41 24.6046 177.524 24.8919C177.639 25.1793 177.644 25.4988 177.539 25.7897ZM182.775 30.797C182.455 30.797 182.143 30.7023 181.877 30.5246C181.611 30.3471 181.403 30.0947 181.281 29.7993C181.159 29.504 181.127 29.179 181.189 28.8654C181.251 28.5519 181.405 28.2639 181.632 28.0378C181.858 27.8117 182.146 27.6578 182.46 27.5954C182.773 27.533 183.098 27.5651 183.394 27.6874C183.689 27.8097 183.942 28.0169 184.12 28.2828C184.297 28.5485 184.392 28.861 184.392 29.1807C184.392 29.6094 184.222 30.0205 183.918 30.3237C183.615 30.6268 183.204 30.797 182.775 30.797Z" fill="white"/>
<path d="M7.634 33.728C8.27933 33.728 8.8 33.6327 9.196 33.442C9.60667 33.2367 9.91467 32.9507 10.12 32.584C10.3253 32.2027 10.428 31.7553 10.428 31.242C10.428 30.4647 10.2007 29.8633 9.746 29.438C9.29133 28.998 8.58733 28.778 7.634 28.778H4.224V33.728H7.634ZM13.068 31.242C13.068 31.7993 12.9727 32.3493 12.782 32.892C12.5913 33.4347 12.2833 33.9407 11.858 34.41C11.4327 34.8647 10.868 35.2313 10.164 35.51C9.47467 35.774 8.63133 35.906 7.634 35.906H4.224V42H1.606V26.6H7.634C8.866 26.6 9.878 26.8127 10.67 27.238C11.4767 27.6487 12.078 28.2133 12.474 28.932C12.87 29.636 13.068 30.406 13.068 31.242ZM20.2804 42.154C19.2244 42.154 18.2784 41.9267 17.4424 41.472C16.6064 41.0027 15.9537 40.35 15.4844 39.514C15.0151 38.6633 14.7804 37.666 14.7804 36.522C14.7804 35.3633 15.0224 34.3587 15.5064 33.508C15.9904 32.6573 16.6577 32.0047 17.5084 31.55C18.3591 31.0807 19.3051 30.846 20.3464 30.846C21.4024 30.846 22.3484 31.0807 23.1844 31.55C24.0351 32.0047 24.7097 32.6573 25.2084 33.508C25.7071 34.344 25.9564 35.334 25.9564 36.478C25.9564 37.6367 25.6997 38.6413 25.1864 39.492C24.6877 40.3427 24.0057 41.0027 23.1404 41.472C22.2897 41.9267 21.3364 42.154 20.2804 42.154ZM20.2584 39.932C20.7717 39.932 21.2557 39.8073 21.7104 39.558C22.1797 39.3087 22.5611 38.9347 22.8544 38.436C23.1477 37.9227 23.2944 37.27 23.2944 36.478C23.2944 35.7153 23.1551 35.0847 22.8764 34.586C22.5977 34.0727 22.2311 33.6913 21.7764 33.442C21.3217 33.1927 20.8304 33.068 20.3024 33.068C19.7891 33.068 19.3124 33.1927 18.8724 33.442C18.4471 33.6913 18.1024 34.0727 17.8384 34.586C17.5744 35.0847 17.4424 35.73 17.4424 36.522C17.4424 37.2847 17.5671 37.9227 17.8164 38.436C18.0804 38.9347 18.4251 39.3087 18.8504 39.558C19.2757 39.8073 19.7451 39.932 20.2584 39.932ZM33.1485 42H30.7065L27.3185 31H29.8485L31.9165 39.052L34.0505 31H36.4705L38.5165 39.03L40.5625 31H43.0485L39.6825 42H37.1965L35.1945 34.564L33.1485 42ZM49.9293 42.154C48.8293 42.154 47.8613 41.912 47.0253 41.428C46.204 40.944 45.5587 40.2693 45.0893 39.404C44.6347 38.5387 44.4073 37.5413 44.4073 36.412C44.4073 35.3413 44.6347 34.388 45.0893 33.552C45.544 32.716 46.1747 32.056 46.9813 31.572C47.788 31.088 48.7047 30.846 49.7313 30.846C50.7727 30.846 51.6893 31.0733 52.4813 31.528C53.2733 31.9827 53.8893 32.6207 54.3293 33.442C54.784 34.2487 55.0113 35.1873 55.0113 36.258C55.0113 36.434 55.004 36.6247 54.9893 36.83C54.9747 37.0207 54.9527 37.226 54.9233 37.446H47.0913C47.1647 37.9593 47.326 38.4067 47.5753 38.788C47.8393 39.1547 48.1693 39.4407 48.5653 39.646C48.9613 39.8513 49.416 39.954 49.9293 39.954C50.5453 39.954 51.0953 39.8293 51.5793 39.58C52.078 39.3307 52.4227 39.0007 52.6133 38.59L54.7913 39.316C54.3513 40.196 53.6987 40.8927 52.8333 41.406C51.968 41.9047 51 42.154 49.9293 42.154ZM52.3053 35.422C52.2907 34.9673 52.166 34.5567 51.9313 34.19C51.6967 33.8233 51.3887 33.5373 51.0073 33.332C50.626 33.112 50.2007 33.002 49.7313 33.002C49.3207 33.002 48.932 33.1047 48.5653 33.31C48.1987 33.5153 47.8833 33.8013 47.6193 34.168C47.37 34.52 47.2087 34.938 47.1353 35.422H52.3053ZM57.3549 31H59.5989L59.7969 32.364C60.0902 31.9973 60.4349 31.6967 60.8309 31.462C61.2269 31.2127 61.6522 31.044 62.1069 30.956C62.5762 30.868 63.0455 30.8827 63.5149 31V33.288C63.1335 33.156 62.7229 33.1267 62.2829 33.2C61.8575 33.2587 61.4615 33.42 61.0949 33.684C60.7282 33.9333 60.4275 34.2927 60.1929 34.762C59.9582 35.2167 59.8409 35.7813 59.8409 36.456V42H57.3549V31ZM70.404 42.154C69.304 42.154 68.336 41.912 67.5 41.428C66.6786 40.944 66.0333 40.2693 65.564 39.404C65.1093 38.5387 64.882 37.5413 64.882 36.412C64.882 35.3413 65.1093 34.388 65.564 33.552C66.0186 32.716 66.6493 32.056 67.456 31.572C68.2626 31.088 69.1793 30.846 70.206 30.846C71.2473 30.846 72.164 31.0733 72.956 31.528C73.748 31.9827 74.364 32.6207 74.804 33.442C75.2586 34.2487 75.486 35.1873 75.486 36.258C75.486 36.434 75.4786 36.6247 75.464 36.83C75.4493 37.0207 75.4273 37.226 75.398 37.446H67.566C67.6393 37.9593 67.8006 38.4067 68.05 38.788C68.314 39.1547 68.644 39.4407 69.04 39.646C69.436 39.8513 69.8906 39.954 70.404 39.954C71.02 39.954 71.57 39.8293 72.054 39.58C72.5526 39.3307 72.8973 39.0007 73.088 38.59L75.266 39.316C74.826 40.196 74.1733 40.8927 73.308 41.406C72.4426 41.9047 71.4746 42.154 70.404 42.154ZM72.78 35.422C72.7653 34.9673 72.6406 34.5567 72.406 34.19C72.1713 33.8233 71.8633 33.5373 71.482 33.332C71.1006 33.112 70.6753 33.002 70.206 33.002C69.7953 33.002 69.4066 33.1047 69.04 33.31C68.6733 33.5153 68.358 33.8013 68.094 34.168C67.8446 34.52 67.6833 34.938 67.61 35.422H72.78ZM85.9255 32.628L85.6395 32.694V26.16H88.1255V42H85.8815L85.7055 40.636C85.3241 41.0613 84.8401 41.4207 84.2535 41.714C83.6668 42.0073 82.9701 42.154 82.1635 42.154C81.1808 42.154 80.3155 41.9193 79.5675 41.45C78.8341 40.9807 78.2621 40.3207 77.8515 39.47C77.4408 38.6193 77.2355 37.6293 77.2355 36.5C77.2355 35.3707 77.4408 34.3807 77.8515 33.53C78.2621 32.6793 78.8341 32.0193 79.5675 31.55C80.3155 31.0807 81.1808 30.846 82.1635 30.846C83.0288 30.846 83.7841 31.022 84.4295 31.374C85.0748 31.7113 85.5735 32.1293 85.9255 32.628ZM79.8975 36.5C79.8975 37.512 80.1615 38.3333 80.6895 38.964C81.2175 39.5947 81.9068 39.91 82.7575 39.91C83.2708 39.91 83.7401 39.778 84.1655 39.514C84.6055 39.25 84.9575 38.8687 85.2215 38.37C85.5001 37.8567 85.6395 37.2333 85.6395 36.5C85.6395 35.7667 85.5001 35.1507 85.2215 34.652C84.9575 34.1387 84.6055 33.75 84.1655 33.486C83.7401 33.222 83.2708 33.09 82.7575 33.09C81.9068 33.09 81.2175 33.4053 80.6895 34.036C80.1615 34.6667 79.8975 35.488 79.8975 36.5ZM99.4084 32.628C99.7604 32.1293 100.259 31.7113 100.904 31.374C101.55 31.022 102.312 30.846 103.192 30.846C104.16 30.846 105.011 31.0807 105.744 31.55C106.478 32.0193 107.05 32.6793 107.46 33.53C107.886 34.3807 108.098 35.3707 108.098 36.5C108.098 37.6293 107.886 38.6193 107.46 39.47C107.05 40.3207 106.47 40.9807 105.722 41.45C104.989 41.9193 104.146 42.154 103.192 42.154C102.356 42.154 101.645 42.0073 101.058 41.714C100.472 41.4207 99.995 41.0613 99.6284 40.636L99.4524 42H97.2084V26.16H99.6944V32.694L99.4084 32.628ZM105.436 36.5C105.436 35.488 105.165 34.6667 104.622 34.036C104.094 33.4053 103.412 33.09 102.576 33.09C102.048 33.09 101.564 33.222 101.124 33.486C100.699 33.75 100.354 34.1387 100.09 34.652C99.8264 35.1507 99.6944 35.7667 99.6944 36.5C99.6944 37.2333 99.8264 37.8567 100.09 38.37C100.354 38.8687 100.699 39.25 101.124 39.514C101.564 39.778 102.048 39.91 102.576 39.91C103.412 39.91 104.094 39.5947 104.622 38.964C105.165 38.3333 105.436 37.512 105.436 36.5ZM117.816 31H120.434L113.966 46.4H111.502L113.482 41.692L109.192 31H111.942L114.846 38.788L117.816 31Z" fill="white"/>
</svg>
