<svg width="147" height="37" viewBox="0 0 147 37" fill="none" xmlns="http://www.w3.org/2000/svg">
<path d="M0.15 36V0.999998H8.25V29.4H25.8V36H0.15ZM46.7887 36.6C44.022 36.6 41.4553 36.15 39.0887 35.25C36.7553 34.35 34.722 33.0833 32.9887 31.45C31.2887 29.8167 29.9553 27.9 28.9887 25.7C28.0553 23.5 27.5887 21.1 27.5887 18.5C27.5887 15.9 28.0553 13.5 28.9887 11.3C29.9553 9.1 31.3053 7.18333 33.0387 5.55C34.772 3.91666 36.8053 2.65 39.1387 1.75C41.472 0.849999 44.0053 0.399999 46.7387 0.399999C49.5053 0.399999 52.0387 0.849999 54.3387 1.75C56.672 2.65 58.6887 3.91666 60.3887 5.55C62.122 7.18333 63.472 9.1 64.4387 11.3C65.4053 13.4667 65.8887 15.8667 65.8887 18.5C65.8887 21.1 65.4053 23.5167 64.4387 25.75C63.472 27.95 62.122 29.8667 60.3887 31.5C58.6887 33.1 56.672 34.35 54.3387 35.25C52.0387 36.15 49.522 36.6 46.7887 36.6ZM46.7387 29.7C48.3053 29.7 49.7387 29.4333 51.0387 28.9C52.372 28.3667 53.5387 27.6 54.5387 26.6C55.5387 25.6 56.3053 24.4167 56.8387 23.05C57.4053 21.6833 57.6887 20.1667 57.6887 18.5C57.6887 16.8333 57.4053 15.3167 56.8387 13.95C56.3053 12.5833 55.5387 11.4 54.5387 10.4C53.572 9.4 52.422 8.63333 51.0887 8.1C49.7553 7.56667 48.3053 7.3 46.7387 7.3C45.172 7.3 43.722 7.56667 42.3887 8.1C41.0887 8.63333 39.9387 9.4 38.9387 10.4C37.9387 11.4 37.1553 12.5833 36.5887 13.95C36.0553 15.3167 35.7887 16.8333 35.7887 18.5C35.7887 20.1333 36.0553 21.65 36.5887 23.05C37.1553 24.4167 37.922 25.6 38.8887 26.6C39.8887 27.6 41.0553 28.3667 42.3887 28.9C43.722 29.4333 45.172 29.7 46.7387 29.7ZM88.8762 36.6C86.1095 36.6 83.5595 36.1667 81.2262 35.3C78.9262 34.4 76.9095 33.1333 75.1762 31.5C73.4762 29.8667 72.1428 27.95 71.1762 25.75C70.2428 23.55 69.7762 21.1333 69.7762 18.5C69.7762 15.8667 70.2428 13.45 71.1762 11.25C72.1428 9.05 73.4928 7.13333 75.2262 5.5C76.9595 3.86667 78.9928 2.61666 81.3262 1.75C83.6595 0.849999 86.2262 0.399999 89.0262 0.399999C92.1262 0.399999 94.9095 0.916665 97.3762 1.95C99.8762 2.98333 101.976 4.48333 103.676 6.45L98.4762 11.25C97.2095 9.91667 95.8262 8.93333 94.3262 8.3C92.8262 7.63333 91.1928 7.3 89.4262 7.3C87.7262 7.3 86.1762 7.56667 84.7762 8.1C83.3762 8.63333 82.1595 9.4 81.1262 10.4C80.1262 11.4 79.3428 12.5833 78.7762 13.95C78.2428 15.3167 77.9762 16.8333 77.9762 18.5C77.9762 20.1333 78.2428 21.6333 78.7762 23C79.3428 24.3667 80.1262 25.5667 81.1262 26.6C82.1595 27.6 83.3595 28.3667 84.7262 28.9C86.1262 29.4333 87.6595 29.7 89.3262 29.7C90.9262 29.7 92.4762 29.45 93.9762 28.95C95.5095 28.4167 96.9928 27.5333 98.4262 26.3L103.026 32.15C101.126 33.5833 98.9095 34.6833 96.3762 35.45C93.8762 36.2167 91.3762 36.6 88.8762 36.6ZM95.6262 31.1V17.95H103.026V32.15L95.6262 31.1ZM127.55 36.6C124.784 36.6 122.217 36.15 119.85 35.25C117.517 34.35 115.484 33.0833 113.75 31.45C112.05 29.8167 110.717 27.9 109.75 25.7C108.817 23.5 108.35 21.1 108.35 18.5C108.35 15.9 108.817 13.5 109.75 11.3C110.717 9.1 112.067 7.18333 113.8 5.55C115.534 3.91666 117.567 2.65 119.9 1.75C122.234 0.849999 124.767 0.399999 127.5 0.399999C130.267 0.399999 132.8 0.849999 135.1 1.75C137.434 2.65 139.45 3.91666 141.15 5.55C142.884 7.18333 144.234 9.1 145.2 11.3C146.167 13.4667 146.65 15.8667 146.65 18.5C146.65 21.1 146.167 23.5167 145.2 25.75C144.234 27.95 142.884 29.8667 141.15 31.5C139.45 33.1 137.434 34.35 135.1 35.25C132.8 36.15 130.284 36.6 127.55 36.6ZM127.5 29.7C129.067 29.7 130.5 29.4333 131.8 28.9C133.134 28.3667 134.3 27.6 135.3 26.6C136.3 25.6 137.067 24.4167 137.6 23.05C138.167 21.6833 138.45 20.1667 138.45 18.5C138.45 16.8333 138.167 15.3167 137.6 13.95C137.067 12.5833 136.3 11.4 135.3 10.4C134.334 9.4 133.184 8.63333 131.85 8.1C130.517 7.56667 129.067 7.3 127.5 7.3C125.934 7.3 124.484 7.56667 123.15 8.1C121.85 8.63333 120.7 9.4 119.7 10.4C118.7 11.4 117.917 12.5833 117.35 13.95C116.817 15.3167 116.55 16.8333 116.55 18.5C116.55 20.1333 116.817 21.65 117.35 23.05C117.917 24.4167 118.684 25.6 119.65 26.6C120.65 27.6 121.817 28.3667 123.15 28.9C124.484 29.4333 125.934 29.7 127.5 29.7Z" fill="white"/>
</svg>
